<?xml version="1.0" encoding="utf-8"?>
<!-- Generator: Adobe Illustrator 16.2.0, SVG Export Plug-In . SVG Version: 6.00 Build 0)  -->
<!DOCTYPE svg PUBLIC "-//W3C//DTD SVG 1.1//EN" "http://www.w3.org/Graphics/SVG/1.1/DTD/svg11.dtd">
<svg version="1.1" id="Слой_1" xmlns="http://www.w3.org/2000/svg" xmlns:xlink="http://www.w3.org/1999/xlink" x="0px" y="0px"
	 width="182px" height="181px" viewBox="0 0 182 181" enable-background="new 0 0 182 181" xml:space="preserve">
<path d="M57.574,121.322V72.183H46.151V59.589h27.186v61.732H57.574z M96.8,88.298c-5.225-2.906-8.59-7.837-8.59-13.209
	c0-9.864,8.678-16.116,22.138-16.116c13.636,0,22.227,6.428,22.227,16.556c0,5.372-2.923,10.127-7.792,12.769
	c6.816,2.817,11.068,8.717,11.068,15.587c0,11.095-9.918,18.142-25.414,18.142s-25.414-6.959-25.414-17.877
	C85.022,97.105,89.627,91.115,96.8,88.298z M101.492,76.409c0,4.405,3.188,6.869,8.944,6.869c5.755,0,8.943-2.465,8.943-6.869
	c0-4.578-3.188-7.132-8.943-7.132C104.68,69.277,101.492,71.831,101.492,76.409z M99.898,102.564c0,5.197,3.72,8.103,10.538,8.103
	c6.817,0,10.625-2.817,10.625-8.103c0-5.106-3.808-8.014-10.625-8.014C103.617,94.55,99.898,97.458,99.898,102.564z M178.772,66.558
	h-16.694c2.621,7.692,3.949,15.737,3.949,23.942c0,41.142-33.657,74.613-75.027,74.613c-41.369,0-75.027-33.472-75.027-74.613
	c0-41.144,33.657-74.615,75.027-74.615c8.251,0,16.341,1.321,24.073,3.929V3.21C107.263,1.08,99.195,0,91,0
	C40.824,0,0,40.598,0,90.5C0,140.402,40.824,181,91,181c50.178,0,91-40.599,91-90.5C182,82.351,180.914,74.327,178.772,66.558z
	 M144.989,54.107h12.548V36.755h17.448V24.278h-17.448V6.925h-12.548v17.353h-17.344v12.477h17.344V54.107z"/>
</svg>
