<?xml version="1.0" encoding="utf-8"?>
<!-- Generator: Adobe Illustrator 16.2.0, SVG Export Plug-In . SVG Version: 6.00 Build 0)  -->
<!DOCTYPE svg PUBLIC "-//W3C//DTD SVG 1.1//EN" "http://www.w3.org/Graphics/SVG/1.1/DTD/svg11.dtd">
<svg version="1.1" id="Слой_1" xmlns="http://www.w3.org/2000/svg" xmlns:xlink="http://www.w3.org/1999/xlink" x="0px" y="0px"
	 width="62px" height="57px" viewBox="0 0 62 57" enable-background="new 0 0 62 57" xml:space="preserve">
<path d="M15.783,19.456L14.307,4.75H4.769L3.293,19.456C1.28,21.191,0,23.74,0,26.6v28.5c0,1.05,0.854,1.9,1.907,1.9h15.261
	c1.054,0,1.907-0.851,1.907-1.9V26.6C19.075,23.74,17.795,21.191,15.783,19.456z M9.537,47.5H4.769v-19h4.769V47.5z M14.306,2.375
	H4.769V0h9.537V2.375z M57.226,23.75h-3.967c0.981-1.337,1.583-2.969,1.583-4.75c0-4.453-3.637-8.075-8.107-8.075
	c-1.153,0-2.293,0.251-3.338,0.729c-3.03-2.162-7.456-2.162-10.487,0c-1.044-0.475-2.183-0.729-3.337-0.729
	c-4.471,0-8.107,3.622-8.107,8.075c0,2.23,0.913,4.251,2.385,5.715V57h28.613v-7.125h4.769c2.635,0,4.769-2.125,4.769-4.75V28.5
	C61.994,25.875,59.86,23.75,57.226,23.75z M47.688,30.875h-2.385v-4.75h2.385V30.875z M46.734,22.325h-3.813
	c-1.318,0-2.387,1.066-2.387,2.377v13.27c0,1.313-1.065,2.375-2.385,2.375c-1.318,0-2.385-1.062-2.385-2.375v-7.097h-7.152v-4.75
	h7.152v-1.422c0-1.313-1.068-2.377-2.387-2.377h-3.813c-1.84,0-3.338-1.492-3.338-3.325c0-1.833,1.497-3.325,3.338-3.325
	c0.764,0,1.486,0.261,2.089,0.755c0.995,0.814,2.459,0.695,3.31-0.267c1.632-1.854,4.74-1.854,6.372,0
	c0.851,0.964,2.314,1.081,3.309,0.267c0.604-0.495,1.323-0.755,2.089-0.755c1.841,0,3.338,1.492,3.338,3.325
	C50.072,20.833,48.575,22.325,46.734,22.325z M57.226,45.125h-4.769V28.5h4.769V45.125z"/>
</svg>
