<?xml version="1.0" encoding="utf-8"?>
<!-- Generator: Adobe Illustrator 16.2.0, SVG Export Plug-In . SVG Version: 6.00 Build 0)  -->
<!DOCTYPE svg PUBLIC "-//W3C//DTD SVG 1.1//EN" "http://www.w3.org/Graphics/SVG/1.1/DTD/svg11.dtd">
<svg version="1.1" id="Слой_1" xmlns="http://www.w3.org/2000/svg" xmlns:xlink="http://www.w3.org/1999/xlink" x="0px" y="0px"
	 width="14px" height="11px" viewBox="0 0 14 11" enable-background="new 0 0 14 11" xml:space="preserve">
<g>
	<path d="M13.747,1.518l-1.229-1.259C12.35,0.086,12.146,0,11.905,0c-0.241,0-0.446,0.086-0.615,0.259L5.365,6.343L2.71,3.611
		C2.541,3.438,2.336,3.352,2.095,3.352c-0.241,0-0.445,0.087-0.614,0.259L0.253,4.87C0.084,5.043,0,5.253,0,5.5
		s0.084,0.457,0.253,0.63l3.27,3.352l1.229,1.26C4.919,10.914,5.124,11,5.365,11c0.241,0,0.446-0.086,0.615-0.259l1.228-1.26
		l6.54-6.704C13.916,2.604,14,2.395,14,2.148S13.916,1.691,13.747,1.518L13.747,1.518z M13.747,1.518"/>
</g>
</svg>
