<?xml version="1.0" encoding="utf-8"?>
<!-- Generator: Adobe Illustrator 16.2.0, SVG Export Plug-In . SVG Version: 6.00 Build 0)  -->
<!DOCTYPE svg PUBLIC "-//W3C//DTD SVG 1.1//EN" "http://www.w3.org/Graphics/SVG/1.1/DTD/svg11.dtd">
<svg version="1.1" id="Слой_1" xmlns="http://www.w3.org/2000/svg" xmlns:xlink="http://www.w3.org/1999/xlink" x="0px" y="0px"
	 width="10px" height="8px" viewBox="0 0 10 8" enable-background="new 0 0 10 8" xml:space="preserve">
<g>
	<path d="M9.818,1.104L8.941,0.188C8.821,0.063,8.675,0,8.503,0S8.185,0.063,8.063,0.188L3.831,4.613L1.935,2.626
		C1.814,2.5,1.668,2.438,1.496,2.438S1.178,2.5,1.058,2.626L0.18,3.542C0.06,3.667,0,3.82,0,4s0.06,0.333,0.18,0.458l2.336,2.438
		l0.877,0.917C3.514,7.938,3.659,8,3.831,8C4.004,8,4.15,7.938,4.271,7.812l0.877-0.917L9.818,2.02C9.939,1.894,10,1.742,10,1.562
		S9.939,1.23,9.818,1.104L9.818,1.104z M9.818,1.104"/>
</g>
</svg>
