<?xml version="1.0" encoding="utf-8"?>
<!-- Generator: Adobe Illustrator 16.2.0, SVG Export Plug-In . SVG Version: 6.00 Build 0)  -->
<!DOCTYPE svg PUBLIC "-//W3C//DTD SVG 1.1//EN" "http://www.w3.org/Graphics/SVG/1.1/DTD/svg11.dtd">
<svg version="1.1" id="Слой_1" xmlns="http://www.w3.org/2000/svg" xmlns:xlink="http://www.w3.org/1999/xlink" x="0px" y="0px"
	 width="19px" height="19px" viewBox="0 0 19 19" enable-background="new 0 0 19 19" xml:space="preserve">
<path d="M16.217,2.782C14.424,0.988,12.037,0,9.5,0S4.576,0.988,2.783,2.782C0.988,4.577,0,6.962,0,9.5s0.988,4.923,2.783,6.717
	C4.576,18.012,6.963,19,9.5,19s4.924-0.988,6.717-2.783C18.012,14.423,19,12.038,19,9.5S18.012,4.577,16.217,2.782z M9.5,18.443
	c-4.932,0-8.943-4.012-8.943-8.943S4.568,0.557,9.5,0.557s8.943,4.012,8.943,8.943S14.432,18.443,9.5,18.443z M11.476,7.242
	l-1.394,1.322C9.91,8.456,9.719,8.376,9.5,8.376c-0.193,0-0.367,0.062-0.525,0.149L5.88,5.198C5.775,5.085,5.6,5.079,5.486,5.184
	C5.374,5.288,5.367,5.464,5.473,5.577L8.57,8.908C8.459,9.083,8.377,9.278,8.377,9.5c0,0.619,0.504,1.123,1.123,1.123
	s1.123-0.504,1.123-1.123c0-0.197-0.064-0.374-0.154-0.535l1.391-1.319c0.111-0.105,0.115-0.282,0.01-0.393
	C11.764,7.141,11.587,7.136,11.476,7.242z M9.5,10.067c-0.313,0-0.566-0.254-0.566-0.567S9.188,8.933,9.5,8.933
	s0.566,0.254,0.566,0.567S9.813,10.067,9.5,10.067z M9.222,2.541V1.368c0-0.154,0.124-0.278,0.278-0.278s0.278,0.125,0.278,0.278
	v1.172c0,0.154-0.124,0.278-0.278,0.278S9.222,2.694,9.222,2.541z M9.778,16.469v1.172c0,0.153-0.124,0.278-0.278,0.278
	s-0.278-0.125-0.278-0.278v-1.172c0-0.154,0.124-0.278,0.278-0.278S9.778,16.315,9.778,16.469z M17.915,9.505
	c0,0.154-0.125,0.278-0.278,0.278h-1.172c-0.154,0-0.279-0.125-0.279-0.278s0.125-0.278,0.279-0.278h1.172
	C17.79,9.227,17.915,9.351,17.915,9.505z M2.814,9.505c0,0.154-0.125,0.278-0.278,0.278H1.363c-0.153,0-0.278-0.125-0.278-0.278
	S1.21,9.227,1.363,9.227h1.172C2.689,9.227,2.814,9.351,2.814,9.505z"/>
</svg>
