<?xml version="1.0" encoding="utf-8"?>
<!-- Generator: Adobe Illustrator 16.2.0, SVG Export Plug-In . SVG Version: 6.00 Build 0)  -->
<!DOCTYPE svg PUBLIC "-//W3C//DTD SVG 1.1//EN" "http://www.w3.org/Graphics/SVG/1.1/DTD/svg11.dtd">
<svg version="1.1" id="Слой_1" xmlns="http://www.w3.org/2000/svg" xmlns:xlink="http://www.w3.org/1999/xlink" x="0px" y="0px"
	 width="74px" height="50px" viewBox="0 0 74 50" enable-background="new 0 0 74 50" xml:space="preserve">
<path d="M23.959,22.816c2.077,0.473,4.033,0.709,5.87,0.709c3.674,0,7.328-0.69,10.961-2.069c3.633-1.379,6.389-2.778,8.266-4.197
	c1.877-1.419,2.815-2.404,2.815-2.956c0-0.395-0.719-1.163-2.156-2.305c-1.437-1.143-3.574-2.385-6.409-3.724
	c-2.835-1.34-5.771-2.246-8.805-2.719L23.36,0v6.029c-4.792,1.34-9.184,3.467-13.177,6.384L1.078,6.029
	C0.759,5.792,0.499,5.734,0.3,5.852C0.1,5.97,0,6.187,0,6.502C0.239,6.896,0.519,7.389,0.838,7.98
	c0.32,0.591,0.719,1.596,1.198,3.015c0.479,1.418,0.718,2.581,0.718,3.487s-0.219,2.009-0.659,3.31
	c-0.439,1.301-0.898,2.345-1.377,3.133L0,22.225c0,0.315,0.12,0.532,0.359,0.65c0.24,0.118,0.479,0.059,0.719-0.177l9.104-6.384
	c0.319,0.236,2.995,1.773,8.026,4.61v5.083L23.959,22.816z M40.191,11.526c0.519-0.512,1.138-0.768,1.857-0.768
	s1.338,0.256,1.857,0.768c0.519,0.512,0.778,1.123,0.778,1.833s-0.26,1.32-0.778,1.833c-0.519,0.512-1.138,0.768-1.857,0.768
	s-1.338-0.256-1.857-0.768s-0.779-1.123-0.779-1.833S39.672,12.039,40.191,11.526z M71.904,35.045c0.439-1.3,0.898-2.384,1.377-3.25
	L74,30.494c0-0.394-0.1-0.65-0.3-0.768s-0.46-0.06-0.778,0.177l-9.104,6.384c-3.993-2.916-8.346-5.004-13.058-6.266v-6.029
	l-11.141,5.556c-3.035,0.473-5.99,1.359-8.865,2.66c-2.875,1.3-5.032,2.522-6.469,3.665c-1.438,1.143-2.156,1.951-2.156,2.423
	c0,0.552,0.938,1.517,2.815,2.896c1.877,1.38,4.632,2.759,8.266,4.138c3.634,1.379,7.328,2.069,11.082,2.069
	c1.836,0,3.753-0.237,5.75-0.709l5.87,3.31v-5.202c4.952-2.758,7.587-4.295,7.907-4.61l9.104,6.502
	c0.24,0.157,0.479,0.177,0.719,0.059S74,46.414,74,46.099c-1.837-3.074-2.755-5.635-2.755-7.684
	C71.245,37.469,71.464,36.346,71.904,35.045z M35.605,37.409c-0.519,0.513-1.138,0.769-1.857,0.769
	c-0.718,0-1.338-0.256-1.856-0.769c-0.519-0.512-0.779-1.123-0.779-1.832c0-0.709,0.26-1.32,0.779-1.832
	c0.519-0.513,1.138-0.769,1.856-0.769c0.719,0,1.338,0.256,1.857,0.769c0.519,0.512,0.779,1.123,0.779,1.832
	C36.384,36.287,36.125,36.897,35.605,37.409z"/>
</svg>
