<?xml version="1.0" encoding="utf-8"?>
<!-- Generator: Adobe Illustrator 16.2.0, SVG Export Plug-In . SVG Version: 6.00 Build 0)  -->
<!DOCTYPE svg PUBLIC "-//W3C//DTD SVG 1.1//EN" "http://www.w3.org/Graphics/SVG/1.1/DTD/svg11.dtd">
<svg version="1.1" id="Слой_1" xmlns="http://www.w3.org/2000/svg" xmlns:xlink="http://www.w3.org/1999/xlink" x="0px" y="0px"
	 width="16px" height="20px" viewBox="0 0 16 20" enable-background="new 0 0 16 20" xml:space="preserve">
<path d="M8,0C3.589,0,0,3.763,0,8.389c0,4.543,7.418,11.227,7.734,11.509C7.811,19.966,7.906,20,8,20
	c0.094,0,0.189-0.034,0.266-0.103C8.583,19.615,16,12.932,16,8.389C16,3.763,12.411,0,8,0z M8,18.998
	c-1.33-1.241-7.18-6.911-7.18-10.609C0.82,4.238,4.042,0.86,8,0.86c3.958,0,7.179,3.377,7.179,7.528
	C15.18,12.084,9.33,17.757,8,18.998z M8,4.518c-2.036,0-3.692,1.737-3.692,3.871c0,2.135,1.656,3.871,3.692,3.871
	s3.692-1.736,3.692-3.871C11.692,6.254,10.036,4.518,8,4.518z M8,11.399c-1.583,0-2.872-1.351-2.872-3.011
	c0-1.66,1.289-3.011,2.872-3.011s2.871,1.351,2.871,3.011C10.872,10.049,9.583,11.399,8,11.399z"/>
</svg>
