<?xml version="1.0" encoding="utf-8"?>
<!-- Generator: Adobe Illustrator 16.2.0, SVG Export Plug-In . SVG Version: 6.00 Build 0)  -->
<!DOCTYPE svg PUBLIC "-//W3C//DTD SVG 1.1//EN" "http://www.w3.org/Graphics/SVG/1.1/DTD/svg11.dtd">
<svg version="1.1" id="Слой_1" xmlns="http://www.w3.org/2000/svg" xmlns:xlink="http://www.w3.org/1999/xlink" x="0px" y="0px"
	 width="64px" height="72px" viewBox="0 0 64 72" enable-background="new 0 0 64 72" xml:space="preserve">
<path d="M2.886,37.708h43.077l-3.986,29.867C41.652,70.009,39.352,72,36.866,72h-24.01c-2.486,0-4.836-1.984-5.221-4.409
	L2.886,37.708z M64,15.694c0,8.654-7.132,15.694-15.898,15.694c-0.434,0-0.864-0.018-1.289-0.052l-0.254,1.909H2.177L0.054,19.88
	c-0.385-2.425,1.334-4.409,3.82-4.409h28.333C32.329,6.92,39.411,0,48.102,0C56.868,0,64,7.041,64,15.694z M55.687,6.742
	l-4.061,6.944h8.127C59.264,10.915,57.785,8.477,55.687,6.742z M44.578,13.686l-4.061-6.944c-2.098,1.735-3.577,4.173-4.066,6.944
	H44.578z M48.102,11.678l4.065-6.951c-1.269-0.459-2.638-0.71-4.065-0.71c-1.428,0-2.797,0.251-4.065,0.71L48.102,11.678z
	 M52.167,26.662l-3.851-6.585l-0.97,7.269c0.25,0.016,0.502,0.026,0.756,0.026C49.529,27.372,50.898,27.121,52.167,26.662z
	 M59.752,17.703h-8.127l4.061,6.944C57.785,22.912,59.264,20.474,59.752,17.703z"/>
</svg>
