<?xml version="1.0" encoding="utf-8"?>
<!-- Generator: Adobe Illustrator 16.2.0, SVG Export Plug-In . SVG Version: 6.00 Build 0)  -->
<!DOCTYPE svg PUBLIC "-//W3C//DTD SVG 1.1//EN" "http://www.w3.org/Graphics/SVG/1.1/DTD/svg11.dtd">
<svg version="1.1" id="Слой_1" xmlns="http://www.w3.org/2000/svg" xmlns:xlink="http://www.w3.org/1999/xlink" x="0px" y="0px"
	 width="18px" height="18px" viewBox="0 0 18 18" enable-background="new 0 0 18 18" xml:space="preserve">
<path d="M12.938,7.594c0,0.22-0.086,0.418-0.225,0.569l0.002,0.001l-3.093,3.375C9.462,11.713,9.237,11.813,9,11.813
	s-0.462-0.1-0.622-0.273L5.284,8.164l0.002-0.001C5.148,8.012,5.063,7.813,5.063,7.594c0-0.466,0.378-0.844,0.844-0.844
	c0.246,0,0.466,0.107,0.619,0.275l0.002-0.001L9,9.72l2.472-2.697l0.002,0.001c0.154-0.168,0.374-0.275,0.62-0.275
	C12.56,6.75,12.938,7.128,12.938,7.594z M18,9c0,4.97-4.03,9-9,9s-9-4.03-9-9s4.03-9,9-9S18,4.03,18,9z M16.313,9
	c0-4.032-3.28-7.313-7.313-7.313S1.688,4.968,1.688,9S4.968,16.313,9,16.313S16.313,13.032,16.313,9z"/>
</svg>
