<?xml version="1.0" encoding="utf-8"?>
<!-- Generator: Adobe Illustrator 16.2.0, SVG Export Plug-In . SVG Version: 6.00 Build 0)  -->
<!DOCTYPE svg PUBLIC "-//W3C//DTD SVG 1.1//EN" "http://www.w3.org/Graphics/SVG/1.1/DTD/svg11.dtd">
<svg version="1.1" id="Слой_1" xmlns="http://www.w3.org/2000/svg" xmlns:xlink="http://www.w3.org/1999/xlink" x="0px" y="0px"
	 width="62px" height="67px" viewBox="0 0 62 67" enable-background="new 0 0 62 67" xml:space="preserve">
<path d="M60.591,13.958h-4.228V5.583c0-3.08-2.527-5.583-5.636-5.583H46.5c-0.778,0-1.409,0.625-1.409,1.396v2.172
	c-0.833-0.481-1.787-0.776-2.818-0.776H5.637C2.528,2.792,0,5.296,0,8.375v50.25c0,3.079,2.528,5.583,5.637,5.583h36.636
	c1.031,0,1.986-0.295,2.818-0.776v2.173c0,0.771,0.631,1.396,1.409,1.396h4.228c3.108,0,5.636-2.504,5.636-5.583V41.875h4.228
	c0.778,0,1.409-0.625,1.409-1.396V15.354C62,14.583,61.369,13.958,60.591,13.958z M39.455,55.833h-31V11.167h31V55.833z
	 M59.182,39.083h-2.818V16.75h2.818V39.083z M11.273,51.646V50.31c0-1.298,0.422-2.26,0.793-3.109
	c0.389-0.883,0.723-1.646,0.723-2.898c0-1.04-0.242-1.793-0.547-2.745c-0.433-1.343-0.969-3.013-0.969-5.934
	c0-3.022,1.318-5.33,2.381-7.184c0.595-1.041,1.127-1.971,1.326-2.823c-0.636-0.784-0.684-1.994-0.676-3.175
	c0.003-0.236,0.064-0.647,0.182-0.854l0.758-1.335c0.251-0.439,0.72-0.711,1.229-0.711h3.656c0.432,0,0.84,0.196,1.107,0.532
	c0.267,0.337,0.363,0.776,0.262,1.192c-0.094,0.384-0.146,0.785-0.148,1.158c-0.005,0.716-0.011,1.774,0.273,2.855
	c0.091,0.346,0.044,0.712-0.13,1.024l-0.36,0.639c-1.163,2.033-2.815,4.921-2.815,8.681c0,3.354,0.609,5.254,1.101,6.78
	c0.288,0.894,0.416,1.315,0.416,1.898c0,0.671-0.163,1.043-0.488,1.786l-0.002,0.005c-0.434,0.988-1.026,2.342-1.026,4.217v1.335
	c0,0.771-0.63,1.396-1.409,1.396h-4.228C11.903,53.042,11.273,52.417,11.273,51.646z M23.241,28.5c0.544-1.073,1.03-2.027,1.2-2.914
	c-0.573-0.764-0.617-1.922-0.61-3.145c0.001-0.214,0.054-0.603,0.149-0.793l0.675-1.334c0.239-0.473,0.727-0.771,1.26-0.771h4.533
	c0.534,0,1.021,0.299,1.261,0.771l0.674,1.334c0.098,0.194,0.148,0.408,0.148,0.625c0.009,1.375-0.035,2.549-0.609,3.314
	c0.171,0.887,0.656,1.841,1.201,2.914c0.938,1.843,2.104,4.137,2.104,7.124c0,2.898-0.474,4.557-0.854,5.89
	c-0.275,0.964-0.493,1.726-0.493,2.789c0,1.281,0.317,2.092,0.651,2.951c0.326,0.838,0.696,1.789,0.696,3.057v1.335
	c0,0.771-0.63,1.396-1.409,1.396H22.546c-0.779,0-1.409-0.625-1.409-1.396v-1.335c0-1.269,0.37-2.219,0.696-3.057
	c0.334-0.859,0.65-1.67,0.65-2.951c0-1.063-0.217-1.825-0.492-2.789c-0.382-1.333-0.854-2.992-0.854-5.89
	C21.137,32.637,22.304,30.343,23.241,28.5z"/>
</svg>
