<?xml version="1.0" encoding="utf-8"?>
<!-- Generator: Adobe Illustrator 16.2.0, SVG Export Plug-In . SVG Version: 6.00 Build 0)  -->
<!DOCTYPE svg PUBLIC "-//W3C//DTD SVG 1.1//EN" "http://www.w3.org/Graphics/SVG/1.1/DTD/svg11.dtd">
<svg version="1.1" id="Слой_1" xmlns="http://www.w3.org/2000/svg" xmlns:xlink="http://www.w3.org/1999/xlink" x="0px" y="0px"
	 width="27px" height="26px" viewBox="0 0 27 26" enable-background="new 0 0 27 26" xml:space="preserve">
<path d="M26.767,24.674l-6.563-6.318c1.761-1.948,2.826-4.491,2.826-7.27C23.029,4.969,17.862,0,11.515,0C5.162,0,0,4.975,0,11.086
	s5.168,11.086,11.515,11.086c2.886,0,5.527-1.026,7.552-2.721l6.563,6.318c0.155,0.15,0.365,0.23,0.568,0.23
	c0.204,0,0.414-0.075,0.569-0.23C27.078,25.47,27.078,24.974,26.767,24.674z M1.611,11.086c0-5.257,4.442-9.529,9.897-9.529
	c5.462,0,9.898,4.277,9.898,9.529s-4.437,9.535-9.898,9.535C6.054,20.621,1.611,16.344,1.611,11.086z"/>
</svg>
