<?xml version="1.0" encoding="utf-8"?>
<!-- Generator: Adobe Illustrator 16.2.0, SVG Export Plug-In . SVG Version: 6.00 Build 0)  -->
<!DOCTYPE svg PUBLIC "-//W3C//DTD SVG 1.1//EN" "http://www.w3.org/Graphics/SVG/1.1/DTD/svg11.dtd">
<svg version="1.1" id="Слой_1" xmlns="http://www.w3.org/2000/svg" xmlns:xlink="http://www.w3.org/1999/xlink" x="0px" y="0px"
	 width="70px" height="46px" viewBox="0 0 70 46" enable-background="new 0 0 70 46" xml:space="preserve">
<path d="M67.389,30.814v-7.472c0-2.838-2.295-5.119-5.149-5.119l-3.558-0.556l-6.097-9.126C52.5,8.47,52.428,8.299,52.342,8.228
	c-0.946-1.255-2.453-2.125-4.203-2.125H36.578v-3.18C36.578,1.312,35.373,0,33.881,0H2.697C1.205,0,0,1.312,0,2.923V22.9v10.837
	v0.698v2.995c0,1.654,1.348,2.909,2.926,2.909h4.202C8.076,43.647,11.088,46,14.732,46c3.643,0,6.655-2.438,7.602-5.661h9.582
	h16.311C49.172,43.647,52.184,46,55.828,46s6.656-2.438,7.603-5.661h3.644c1.664,0,2.926-1.34,2.926-2.909v-3.693
	C70,32.226,68.809,30.971,67.389,30.814z M14.732,42.064c-2.224,0-3.959-1.811-3.959-3.936s1.821-3.936,3.959-3.936
	c2.223,0,3.959,1.811,3.959,3.936S16.955,42.064,14.732,42.064z M42,17.966c-0.2,0-0.373-0.157-0.373-0.371v-7.229
	c0-0.2,0.158-0.371,0.373-0.371h6.283c0.129,0,0.244,0.057,0.301,0.157l4.892,7.229c0.158,0.242-0.015,0.57-0.302,0.57H42V17.966z
	 M55.828,42.064c-2.223,0-3.959-1.811-3.959-3.936s1.822-3.936,3.959-3.936c2.224,0,3.959,1.811,3.959,3.936
	S57.965,42.064,55.828,42.064z"/>
</svg>
